<?xml version="1.0" encoding="utf-8"?>
<!-- Generator: Adobe Illustrator 26.3.1, SVG Export Plug-In . SVG Version: 6.00 Build 0)  -->
<svg version="1.1" id="Layer_1" xmlns="http://www.w3.org/2000/svg" xmlns:xlink="http://www.w3.org/1999/xlink" x="0px" y="0px"
	 viewBox="0 0 24 24" style="enable-background:new 0 0 24 24;" xml:space="preserve">
<style type="text/css">
	.st0{display:none;fill:none;}
	.st1{display:none;fill:none;stroke:#000000;stroke-width:2;stroke-linecap:round;stroke-linejoin:round;}
</style>
<path class="st0" d="M0,0h24v24H0V0z"/>
<path class="st1" d="M9,19c-4.3,1.4-4.3-2.5-6-3 M15,21v-3.5c0-1,0.1-1.4-0.5-2c2.8-0.3,5.5-1.4,5.5-6c0-1.2-0.5-2.3-1.3-3.2
	c0.4-1,0.4-2.2-0.1-3.2c0,0-1.1-0.3-3.5,1.3c-2-0.5-4.2-0.5-6.2,0C6.5,2.8,5.4,3.1,5.4,3.1c-0.5,1-0.5,2.2-0.1,3.2
	C4.5,7.2,4,8.3,4,9.5c0,4.6,2.7,5.7,5.5,6c-0.6,0.6-0.6,1.2-0.5,2V21"/>
<g>
	<path d="M12,1C9,1,8.6,1,7.5,1.1c-1.2,0.1-2,0.2-2.7,0.5C4.1,1.9,3.5,2.3,2.9,2.9c-0.6,0.6-1,1.2-1.3,1.9C1.3,5.5,1.1,6.3,1.1,7.5
		C1,8.6,1,9,1,12c0,3,0,3.4,0.1,4.5c0.1,1.2,0.2,2,0.5,2.7c0.3,0.7,0.7,1.3,1.3,1.9c0.6,0.6,1.2,1,1.9,1.3c0.7,0.3,1.5,0.5,2.7,0.5
		C8.6,23,9,23,12,23c3,0,3.4,0,4.5-0.1c1.2-0.1,2-0.2,2.7-0.5c0.7-0.3,1.3-0.7,1.9-1.3c0.6-0.6,1-1.2,1.3-1.9
		c0.3-0.7,0.5-1.5,0.5-2.7C23,15.4,23,15,23,12c0-3,0-3.4-0.1-4.5c-0.1-1.2-0.2-2-0.5-2.7c-0.3-0.7-0.7-1.3-1.3-1.9
		c-0.6-0.6-1.2-1-1.9-1.3c-0.7-0.3-1.5-0.5-2.7-0.5C15.4,1,15,1,12,1z M12,3c2.9,0,3.3,0,4.4,0.1c1.1,0,1.7,0.2,2,0.4
		c0.5,0.2,0.9,0.4,1.3,0.8c0.4,0.4,0.6,0.7,0.8,1.3c0.2,0.4,0.3,1,0.4,2C21,8.7,21,9.1,21,12s0,3.3-0.1,4.4c0,1.1-0.2,1.7-0.4,2
		c-0.2,0.5-0.4,0.9-0.8,1.3c-0.4,0.4-0.7,0.6-1.3,0.8c-0.4,0.2-1,0.3-2,0.4C15.3,21,14.9,21,12,21s-3.3,0-4.4-0.1
		c-1.1,0-1.7-0.2-2-0.4c-0.5-0.2-0.9-0.4-1.3-0.8c-0.4-0.4-0.6-0.7-0.8-1.3c-0.2-0.4-0.3-1-0.4-2C3,15.3,3,14.9,3,12s0-3.3,0.1-4.4
		c0-1.1,0.2-1.7,0.4-2C3.6,5,3.9,4.6,4.3,4.3C4.6,3.9,5,3.6,5.5,3.4c0.4-0.2,1-0.3,2-0.4C8.7,3,9.1,3,12,3"/>
	<path d="M12,15.7c-2,0-3.7-1.6-3.7-3.7c0-2,1.6-3.7,3.7-3.7c2,0,3.7,1.6,3.7,3.7C15.7,14,14,15.7,12,15.7z M12,6.4
		c-3.1,0-5.6,2.5-5.6,5.6c0,3.1,2.5,5.6,5.6,5.6c3.1,0,5.6-2.5,5.6-5.6C17.6,8.9,15.1,6.4,12,6.4 M19.2,6.1c0,0.7-0.6,1.3-1.3,1.3
		c-0.7,0-1.3-0.6-1.3-1.3c0-0.7,0.6-1.3,1.3-1.3C18.6,4.8,19.2,5.4,19.2,6.1"/>
</g>
</svg>
