<svg width="401" height="400" viewBox="0 0 401 400" fill="none" xmlns="http://www.w3.org/2000/svg">
<circle cx="200.521" cy="200" r="200" fill="url(#paint0_linear_1010_87)"/>
<path d="M310.65 246.52C310.64 245.4 310.6 244.28 310.54 243.16C310.52 242.77 310.48 242.39 310.46 242.01C310.41 241.27 310.36 240.52 310.29 239.78C310.25 239.32 310.19 238.87 310.13 238.41C310.05 237.74 309.98 237.08 309.89 236.41C309.82 235.93 309.74 235.45 309.67 234.96C309.57 234.33 309.47 233.7 309.36 233.07C309.27 232.57 309.17 232.08 309.07 231.58C308.95 230.97 308.82 230.37 308.69 229.76C308.58 229.25 308.45 228.75 308.33 228.25C308.19 227.66 308.04 227.07 307.88 226.48C307.74 225.97 307.6 225.46 307.45 224.96C307.28 224.38 307.11 223.81 306.93 223.24C306.77 222.73 306.61 222.22 306.44 221.72C306.25 221.16 306.06 220.6 305.86 220.04C305.68 219.53 305.49 219.02 305.3 218.52C305.09 217.97 304.88 217.43 304.66 216.89C304.46 216.38 304.25 215.87 304.03 215.37C303.8 214.84 303.57 214.31 303.33 213.78C303.1 213.27 302.88 212.77 302.64 212.26C302.4 211.74 302.14 211.23 301.89 210.72C301.64 210.21 301.39 209.71 301.13 209.2C300.87 208.7 300.6 208.21 300.33 207.72C300.05 207.21 299.78 206.7 299.49 206.2C299.22 205.73 298.94 205.27 298.67 204.81C298.36 204.29 298.06 203.77 297.74 203.25C297.5 202.86 297.25 202.49 297 202.1C296.08 200.67 295.13 199.26 294.12 197.88C294.07 197.82 294.03 197.75 293.98 197.69C293.55 197.09 293.09 196.51 292.64 195.92C292.39 195.6 292.15 195.27 291.9 194.95C291.46 194.39 291.01 193.85 290.56 193.3C290.28 192.96 290 192.61 289.72 192.28C289.27 191.75 288.8 191.23 288.34 190.7C288.04 190.36 287.74 190.02 287.43 189.68C286.96 189.16 286.48 188.66 285.99 188.15C285.67 187.82 285.36 187.49 285.04 187.16C284.55 186.66 284.04 186.17 283.54 185.67C283.21 185.35 282.89 185.03 282.55 184.72C282.03 184.23 281.51 183.75 280.98 183.27C280.64 182.97 280.31 182.66 279.97 182.36C279.43 181.88 278.88 181.41 278.33 180.95C277.99 180.66 277.65 180.38 277.3 180.1C276.73 179.63 276.16 179.17 275.58 178.72C275.24 178.45 274.89 178.19 274.55 177.93C273.95 177.47 273.35 177.02 272.74 176.58C272.4 176.34 272.06 176.1 271.72 175.86C271.08 175.41 270.45 174.97 269.8 174.53C269.48 174.32 269.15 174.11 268.83 173.89C268.15 173.45 267.47 173 266.78 172.57C266.49 172.39 266.2 172.22 265.91 172.05C265.17 171.6 264.42 171.15 263.67 170.72C263.47 170.6 263.26 170.49 263.05 170.38C259.13 168.18 255.02 166.21 250.73 164.51C257.46 155.46 261.46 144.27 261.46 132.12V117.71C261.44 87.6801 237.09 63.3301 207.05 63.3301H149.63C124.46 63.3301 104.05 83.7401 104.05 108.92V234.36C104.05 234.36 104.05 234.38 104.05 234.39C104.04 234.66 104.03 234.91 104.02 235.15C104.02 235.22 104.02 235.28 104.02 235.35C104.02 235.52 104.02 235.68 104.02 235.84C104.02 235.9 104.02 235.96 104.02 236.02C104.02 236.17 104.02 236.3 104.02 236.42C104.02 236.46 104.02 236.5 104.02 236.54C104.02 236.69 104.02 236.82 104.02 236.93C104.09 238.43 104.18 265.62 104.25 291.23C104.29 306.7 112.05 320.35 123.86 328.56C124.17 328.77 124.47 328.98 124.78 329.19C126.18 330.11 127.63 330.95 129.13 331.72C129.81 332.07 130.5 332.4 131.2 332.71C132.18 333.15 133.16 333.56 134.18 333.93C134.88 334.18 135.58 334.42 136.29 334.64C137.71 335.08 139.17 335.46 140.65 335.76C141.39 335.91 142.14 336.04 142.89 336.16C145.15 336.5 147.46 336.68 149.82 336.68H222.57C223.17 336.64 223.8 336.6 224.45 336.54C225.1 336.48 225.79 336.42 226.5 336.35C227.92 336.2 229.44 336.01 231.05 335.77C231.99 335.63 232.96 335.46 233.95 335.28C235.37 335.02 236.84 334.72 238.36 334.36C238.76 334.27 239.16 334.17 239.57 334.07C242.72 333.29 246.06 332.3 249.52 331.02C250.91 330.51 252.32 329.96 253.75 329.36C254.8 328.91 255.85 328.44 256.92 327.94C260.11 326.43 263.35 324.67 266.61 322.61C269.23 320.95 311.13 293.65 310.66 246.57C310.66 246.56 310.66 246.54 310.66 246.53L310.65 246.52Z" fill="black"/>
<path d="M250.74 164.53C240.97 177.68 225.41 186.26 207.82 186.5C206.77 186.58 205.88 186.61 205.19 186.61H155.03C151.39 186.49 134.65 186.3 120.41 199.01C103.94 213.71 103.95 233.91 104 236.92C104.07 238.42 104.16 265.61 104.23 291.22C104.3 316.34 124.68 336.67 149.81 336.67H222.57C232.15 336.05 249.25 333.58 266.61 322.59C269.23 320.93 311.13 293.63 310.66 246.55C310.31 211.43 286.51 178.68 250.74 164.52V164.53Z" fill="#2270D7"/>
<g filter="url(#filter0_d_1010_87)">
<path d="M120.41 199.02C134.65 186.31 151.39 186.49 155.03 186.62H205.19C205.88 186.62 206.77 186.58 207.82 186.51C223 186.3 236.66 179.87 246.4 169.66C246.84 169.2 247.26 168.73 247.68 168.26C247.87 168.04 248.06 167.83 248.25 167.61C248.65 167.15 249.04 166.68 249.42 166.2C249.61 165.96 249.8 165.72 249.99 165.47C257.15 156.26 261.43 144.7 261.43 132.13V117.72C261.44 87.6801 237.09 63.3301 207.05 63.3301H149.63C124.46 63.3301 104.05 83.7401 104.05 108.92V234.36C104.35 227.77 106.51 211.43 120.41 199.02Z" fill="white"/>
</g>
<defs>
<filter id="filter0_d_1010_87" x="100.05" y="63.3301" width="165.38" height="179.03" filterUnits="userSpaceOnUse" color-interpolation-filters="sRGB">
<feFlood flood-opacity="0" result="BackgroundImageFix"/>
<feColorMatrix in="SourceAlpha" type="matrix" values="0 0 0 0 0 0 0 0 0 0 0 0 0 0 0 0 0 0 127 0" result="hardAlpha"/>
<feOffset dy="4"/>
<feGaussianBlur stdDeviation="2"/>
<feComposite in2="hardAlpha" operator="out"/>
<feColorMatrix type="matrix" values="0 0 0 0 0 0 0 0 0 0 0 0 0 0 0 0 0 0 0.25 0"/>
<feBlend mode="normal" in2="BackgroundImageFix" result="effect1_dropShadow_1010_87"/>
<feBlend mode="normal" in="SourceGraphic" in2="effect1_dropShadow_1010_87" result="shape"/>
</filter>
<linearGradient id="paint0_linear_1010_87" x1="200.521" y1="0" x2="344.161" y2="472.319" gradientUnits="userSpaceOnUse">
<stop stop-color="#2A323F"/>
<stop offset="1" stop-color="#1C2431"/>
</linearGradient>
</defs>
</svg>
