<?xml version="1.0" encoding="utf-8"?>
<!-- Generator: Adobe Illustrator 26.3.1, SVG Export Plug-In . SVG Version: 6.00 Build 0)  -->
<svg version="1.1" id="Layer_1" xmlns="http://www.w3.org/2000/svg" xmlns:xlink="http://www.w3.org/1999/xlink" x="0px" y="0px"
	 viewBox="0 0 24 24" style="enable-background:new 0 0 24 24;" xml:space="preserve">
<style type="text/css">
	.st0{display:none;fill:none;}
	.st1{display:none;fill:none;stroke:#000000;stroke-width:2;stroke-linecap:round;stroke-linejoin:round;}
</style>
<path class="st0" d="M0,0h24v24H0V0z"/>
<path class="st1" d="M9,19c-4.3,1.4-4.3-2.5-6-3 M15,21v-3.5c0-1,0.1-1.4-0.5-2c2.8-0.3,5.5-1.4,5.5-6c0-1.2-0.5-2.3-1.3-3.2
	c0.4-1,0.4-2.2-0.1-3.2c0,0-1.1-0.3-3.5,1.3c-2-0.5-4.2-0.5-6.2,0C6.5,2.8,5.4,3.1,5.4,3.1c-0.5,1-0.5,2.2-0.1,3.2
	C4.5,7.2,4,8.3,4,9.5c0,4.6,2.7,5.7,5.5,6c-0.6,0.6-0.6,1.2-0.5,2V21"/>
<g>
	<path d="M20.6,3.4c-0.5-0.5-1-0.8-1.7-1.1c-0.7-0.3-1.4-0.4-2.4-0.5c-1.2-0.1-1.5-0.1-4.5-0.1c-2.9,0-3.3,0-4.5,0.1
		c-1,0-1.7,0.2-2.4,0.5C4.4,2.6,3.9,2.9,3.4,3.4c-0.5,0.5-0.8,1-1.1,1.7C2.1,5.8,1.9,6.5,1.9,7.5C1.8,8.7,1.8,9.1,1.8,12
		c0,2.9,0,3.3,0.1,4.5c0,1,0.2,1.7,0.5,2.4c0.3,0.7,0.6,1.2,1.1,1.7c0.5,0.5,1,0.8,1.7,1.1c0.7,0.3,1.4,0.4,2.4,0.5
		c1.2,0.1,1.5,0.1,4.5,0.1s3.3,0,4.5-0.1c1,0,1.7-0.2,2.4-0.5c0.7-0.3,1.2-0.6,1.7-1.1c0.5-0.5,0.8-1,1.1-1.7
		c0.3-0.7,0.4-1.4,0.5-2.4c0.1-1.2,0.1-1.5,0.1-4.5s0-3.3-0.1-4.5c0-1-0.2-1.7-0.5-2.4C21.4,4.4,21.1,3.9,20.6,3.4z M21.8,12
		c0,2.9,0,3.3-0.1,4.5c-0.1,1.2-0.3,1.8-0.4,2.3c-0.2,0.6-0.5,1.1-1,1.5c-0.5,0.5-0.9,0.8-1.5,1c-0.4,0.2-1.1,0.4-2.3,0.4
		c-1.2,0.1-1.5,0.1-4.5,0.1c-2.9,0-3.3,0-4.5-0.1c-1.2-0.1-1.8-0.3-2.3-0.4c-0.6-0.2-1.1-0.5-1.5-1c-0.5-0.5-0.8-0.9-1-1.5
		c-0.2-0.4-0.4-1.1-0.4-2.3c-0.1-1.2-0.1-1.5-0.1-4.5s0-3.3,0.1-4.5c0.1-1.2,0.3-1.8,0.4-2.3c0.2-0.6,0.5-1.1,1-1.5
		c0.5-0.5,0.9-0.8,1.5-1c0.4-0.2,1.1-0.4,2.3-0.4C8.7,2.2,9.1,2.2,12,2.2s3.3,0,4.5,0.1c1.2,0.1,1.8,0.3,2.3,0.4
		c0.6,0.2,1.1,0.5,1.5,1c0.5,0.5,0.8,0.9,1,1.5c0.2,0.4,0.4,1.1,0.4,2.3C21.8,8.7,21.8,9.1,21.8,12z"/>
	<g>
		<circle cx="17.9" cy="6.1" r="0.5"/>
		<path d="M12,7.2c-2.7,0-4.8,2.2-4.8,4.8c0,2.7,2.2,4.8,4.8,4.8c2.7,0,4.8-2.2,4.8-4.8C16.8,9.3,14.7,7.2,12,7.2z M12,16.5
			c-2.5,0-4.5-2-4.5-4.5s2-4.5,4.5-4.5s4.5,2,4.5,4.5S14.5,16.5,12,16.5z"/>
	</g>
</g>
</svg>
